<?xml version="1.0" standalone="no"?>
<!DOCTYPE svg PUBLIC "-//W3C//DTD SVG 20010904//EN"
 "http://www.w3.org/TR/2001/REC-SVG-20010904/DTD/svg10.dtd">
<svg version="1.0" xmlns="http://www.w3.org/2000/svg"
 width="500.000000pt" height="500.000000pt" viewBox="0 0 500.000000 500.000000"
 preserveAspectRatio="xMidYMid meet">

<g transform="translate(0.000000,500.000000) scale(0.100000,-0.100000)"
fill="#000000" stroke="none">
<path d="M0 2385 l0 -1205 2500 0 2500 0 0 1205 0 1205 -2500 0 -2500 0 0
-1205z m4970 5 l0 -1180 -2470 0 -2470 0 0 380 0 380 1145 0 1145 0 0 450 0
450 -1145 0 -1145 0 0 350 0 350 2470 0 2470 0 0 -1180z m-3856 166 c18 -7 43
-26 55 -42 20 -25 21 -29 6 -32 -9 -2 -28 8 -42 22 -36 37 -100 36 -137 0 -20
-21 -26 -36 -26 -71 0 -90 91 -134 159 -77 46 39 41 54 -19 54 -38 0 -50 4
-50 15 0 12 14 15 70 15 39 0 70 -3 70 -7 0 -33 -26 -86 -51 -107 -43 -37
-125 -37 -168 -1 -76 65 -59 191 33 231 40 17 59 17 100 0z m-514 -111 l0
-115 65 0 c51 0 65 -3 65 -15 0 -12 -16 -15 -80 -15 l-80 0 0 130 c0 109 2
130 15 130 12 0 15 -19 15 -115z m240 -15 c0 -109 -2 -130 -15 -130 -13 0 -15
21 -15 130 0 109 2 130 15 130 13 0 15 -21 15 -130z m480 75 l0 -55 70 0 70 0
0 55 c0 42 3 55 15 55 13 0 15 -21 15 -130 0 -107 -3 -130 -15 -130 -10 0 -15
15 -17 58 l-3 57 -67 3 -68 3 0 -61 c0 -53 -2 -60 -20 -60 -19 0 -20 7 -20
130 0 123 1 130 20 130 18 0 20 -7 20 -55z m460 40 c0 -11 -12 -15 -45 -15
l-45 0 0 -115 c0 -96 -3 -115 -15 -115 -12 0 -15 19 -15 115 l0 115 -45 0
c-33 0 -45 4 -45 15 0 12 18 15 105 15 87 0 105 -3 105 -15z"/>
<path d="M2870 2583 c-36 -13 -60 -47 -60 -84 0 -50 24 -76 90 -97 43 -13 55
-22 55 -37 0 -28 -40 -32 -57 -6 -10 16 -23 21 -55 21 -24 0 -43 -2 -43 -4 0
-1 5 -17 11 -34 39 -112 254 -78 235 38 -7 42 -34 67 -92 81 -46 12 -70 31
-59 49 10 15 55 12 61 -5 4 -10 20 -15 45 -15 46 0 52 22 18 59 -34 36 -101
52 -149 34z"/>
<path d="M4285 2576 c-67 -29 -105 -106 -91 -180 25 -130 217 -164 300 -53 16
21 21 43 21 87 0 63 -16 95 -68 134 -33 25 -121 32 -162 12z m120 -91 c62 -61
-1 -154 -82 -120 -32 14 -43 32 -43 71 0 33 42 74 75 74 14 0 37 -11 50 -25z"/>
<path d="M3080 2540 l0 -40 45 0 45 0 0 -110 0 -110 45 0 45 0 0 110 0 110 45
0 45 0 0 40 0 40 -135 0 -135 0 0 -40z"/>
<path d="M3390 2471 c0 -96 3 -112 23 -142 26 -39 77 -61 125 -53 93 15 114
49 120 196 l5 108 -47 0 -46 0 0 -91 c0 -105 -9 -129 -49 -129 -37 0 -41 12
-41 126 l0 94 -45 0 -45 0 0 -109z"/>
<path d="M3720 2430 l0 -150 83 0 c113 1 160 22 189 86 35 81 11 159 -63 196
-25 13 -58 18 -121 18 l-88 0 0 -150z m142 70 c90 -25 70 -140 -24 -140 l-38
0 0 68 c0 88 1 89 62 72z"/>
<path d="M4060 2430 l0 -150 40 0 40 0 0 150 0 150 -40 0 -40 0 0 -150z"/>
</g>
</svg>
